<svg xmlns="http://www.w3.org/2000/svg" viewBox="0 0 1200 700" role="img" aria-label="Data center hero">
  <defs>
    <linearGradient id="bg" x1="0" y1="0" x2="1" y2="1">
      <stop offset="0" stop-color="#0f2b1f"/>
      <stop offset="1" stop-color="#1d6b45"/>
    </linearGradient>
  </defs>
  <rect width="1200" height="700" fill="url(#bg)"/>
  <g opacity="0.2" fill="#9ee0be">
    <rect x="80" y="120" width="220" height="460" rx="14"/>
    <rect x="340" y="120" width="220" height="460" rx="14"/>
    <rect x="600" y="120" width="220" height="460" rx="14"/>
    <rect x="860" y="120" width="220" height="460" rx="14"/>
  </g>
  <g fill="#d9ffe8">
    <circle cx="180" cy="200" r="8"/><circle cx="180" cy="250" r="8"/><circle cx="180" cy="300" r="8"/>
    <circle cx="440" cy="220" r="8"/><circle cx="440" cy="270" r="8"/><circle cx="440" cy="320" r="8"/>
    <circle cx="700" cy="210" r="8"/><circle cx="700" cy="260" r="8"/><circle cx="700" cy="310" r="8"/>
    <circle cx="960" cy="200" r="8"/><circle cx="960" cy="250" r="8"/><circle cx="960" cy="300" r="8"/>
  </g>
  <text x="80" y="640" font-size="56" fill="#ffffff" font-family="Segoe UI, Arial, sans-serif">Reliable Hosting Infrastructure</text>
</svg>
